# xmcd
#
# Track frame offsets: 
#        150
#        19899
#        36773
#        55843
#        65481
#        80605
#        98753
#        115080
#        138627
#        154382
#        164942
#        170890
#        181632
#        199698
#        226191
#        250420
#        264018
#        278326
#        290826
#        307093
#
# Disc length: 4278 seconds
#
# Revision: 0
# Processed by: cddbd v1.5.2PL0 Copyright (c) Steve Scherf et al.
# Submitted via: ExactAudioCopy v1.1
#
DISCID=2110b414
DTITLE=Various Artist - Radio 2 - 100 Kerstklassiekers - CD 5
DYEAR=2008
DGENRE=Chorus
TTITLE0=Wham! - Last Christmas
TTITLE1=Band Aid - Do They Know It's Christmas?
TTITLE2=Backstreet Boys - Christmas Time
TTITLE3=Elvis Presley - Blue Christmas
TTITLE4=Johnny Mathis - Do You Hear What I Hear
TTITLE5=R. Kelly - World Christmas
TTITLE6=Bobby Vinton - O Holy Night
TTITLE7=The Cover Girls - New York City Christmas
TTITLE8=Mary Chapin Carpenter - Bells Are Ringing
TTITLE9=Perry Como - Frosty The Snowman
TTITLE10=Marty Robbins - Christmas Time Is Here Again
TTITLE11=Engelbert Humperdinck - God Rest Ye Merry Gentlemen
TTITLE12=Charlie Daniels - My Christmas Love Song To You
TTITLE13=The Manhattan Transfer - It Came Upon A Midnight Clear
TTITLE14=Santana - Posada (Pilgrimage To Bethlehem)
TTITLE15=Jackson 5 - I Saw Mommy Kissing Santa Claus
TTITLE16=Harry Belafonte - The Son Of Mary
TTITLE17=Roy Orbison - Pretty Paper
TTITLE18=Louis Neefs - Susa-Nina
TTITLE19=Bing Crosby - White Christmas
EXTD=
EXTT0=
EXTT1=
EXTT2=
EXTT3=
EXTT4=
EXTT5=
EXTT6=
EXTT7=
EXTT8=
EXTT9=
EXTT10=
EXTT11=
EXTT12=
EXTT13=
EXTT14=
EXTT15=
EXTT16=
EXTT17=
EXTT18=
EXTT19=
PLAYORDER=
